# xmcd
#
# Track frame offsets:
#	150
#	20679
#	43073
#	64553
#	95952
#	123276
#	147269
#	174183
#	197135
#
# Disc length: 3230 seconds
# Revision: 2
# Processed by: cddbd v1.5.2PL0 Copyright (c) Steve Scherf et al.
# Submitted via: dBpowerAMP V12.0
#
DISCID=7d0c9c09
DTITLE=Debbie Davies - Debbie Davies' Blues Blast
DYEAR=2007
DGENRE=Blues
TTITLE0=A.C. Strut
TTITLE1=My Time After Awhile
TTITLE2=Sittin' And Cryin'
TTITLE3=Movin' and Groovin'
TTITLE4=Crawling King Snake
TTITLE5=Howlin' For My Darlin'
TTITLE6=Like You Was Gone
TTITLE7=Where The Blues Come To Die
TTITLE8=Sonoma Sunset
EXTD=
EXTT0=
EXTT1=
EXTT2=
EXTT3=
EXTT4=
EXTT5=
EXTT6=
EXTT7=
EXTT8=
PLAYORDER=
